<svg width="14" height="19" viewBox="0 0 14 19" fill="none" xmlns="http://www.w3.org/2000/svg">
<path fill-rule="evenodd" clip-rule="evenodd" d="M1.01 1.84375C1.01 1.24219 1.45 0.75 2 0.75H8L13 6.21875V17.1562C13 17.7578 12.55 18.25 12 18.25H2C1.44 18.25 1 17.7578 1 17.1562L1.01 1.84375ZM8 1.84375V6.21875H12L8 1.84375Z" fill="#27AE60" fill-opacity="0.05"/>
<path d="M1.01 1.84375L1.51 1.84408V1.84375H1.01ZM8 0.75L8.36901 0.412615L8.22034 0.25H8V0.75ZM13 6.21875H13.5V6.02463L13.369 5.88137L13 6.21875ZM1 17.1562L0.5 17.1559V17.1562H1ZM8 6.21875H7.5V6.71875H8V6.21875ZM8 1.84375L8.36901 1.50637L7.5 0.555881V1.84375H8ZM12 6.21875V6.71875H13.1346L12.369 5.88137L12 6.21875ZM2 0.25C1.12643 0.25 0.51 1.01599 0.51 1.84375H1.51C1.51 1.46839 1.77357 1.25 2 1.25V0.25ZM8 0.25H2V1.25H8V0.25ZM13.369 5.88137L8.36901 0.412615L7.63099 1.08738L12.631 6.55613L13.369 5.88137ZM13.5 17.1562V6.21875H12.5V17.1562H13.5ZM12 18.75C12.8674 18.75 13.5 17.9908 13.5 17.1562H12.5C12.5 17.5248 12.2326 17.75 12 17.75V18.75ZM2 18.75H12V17.75H2V18.75ZM0.5 17.1562C0.5 17.9874 1.11953 18.75 2 18.75V17.75C1.76047 17.75 1.5 17.5282 1.5 17.1562H0.5ZM0.51 1.84342L0.5 17.1559L1.5 17.1566L1.51 1.84408L0.51 1.84342ZM8.5 6.21875V1.84375H7.5V6.21875H8.5ZM12 5.71875H8V6.71875H12V5.71875ZM7.63099 2.18113L11.631 6.55613L12.369 5.88137L8.36901 1.50637L7.63099 2.18113Z" fill="#27AE60"/>
</svg>
